<?xml version="1.0" encoding="UTF-8"?>
<svg id="Capa_1" data-name="Capa 1" xmlns="http://www.w3.org/2000/svg" viewBox="0 0 1200 1200">
  <defs>
    <style>
      .cls-1 {
        fill: #6e807f;
      }

      .cls-2 {
        fill: #fff;
      }

      .cls-3 {
        fill: #d7d7d6;
      }

      .cls-4 {
        fill: #f7c1cf;
      }

      .cls-5 {
        fill: #69164a;
      }

      .cls-6 {
        fill: #dc668c;
      }
    </style>
  </defs>
  <g>
    <g>
      <rect class="cls-3" x="579.08" y="504.73" width="269.51" height="2.96"/>
      <rect class="cls-3" x="235.11" y="548.88" width="215.76" height="2.96"/>
      <polygon class="cls-3" points="643.16 551.84 541.07 551.84 496.93 507.69 301.32 507.69 301.32 504.73 498.16 504.73 542.29 548.88 643.16 548.88 643.16 551.84"/>
      <rect class="cls-3" x="740.39" y="548.88" width="218.55" height="2.96"/>
      <polygon class="cls-3" points="629.87 463.55 531.69 463.55 443.41 375.25 257.69 375.25 257.69 372.29 444.64 372.29 532.92 460.59 629.87 460.59 629.87 463.55"/>
      <rect class="cls-3" x="845.49" y="460.59" width="142.53" height="2.96"/>
      <rect class="cls-3" x="205.77" y="460.59" width="252.32" height="2.96"/>
      <rect class="cls-3" x="843.73" y="416.44" width="122.48" height="2.96"/>
      <rect class="cls-3" x="572.71" y="416.44" width="121.99" height="2.96"/>
      <rect class="cls-3" x="257.18" y="416.44" width="152.09" height="2.96"/>
      <rect class="cls-3" x="845.88" y="372.29" width="68.93" height="2.96"/>
      <rect class="cls-3" x="593.46" y="372.29" width="169.74" height="2.96"/>
      <polygon class="cls-3" points="674.83 331.37 630.68 287.22 468.31 286.96 424.17 242.81 412.95 242.81 412.95 239.84 425.4 239.84 469.53 284 631.91 284.26 676.04 328.39 692.07 328.14 848.59 328.14 848.59 331.1 692.09 331.1 674.83 331.37"/>
      <rect class="cls-3" x="294.31" y="328.14" width="293.99" height="2.96"/>
      <rect class="cls-3" x="345.71" y="284" width="39.31" height="2.96"/>
      <rect class="cls-3" x="709.63" y="284" width="145.72" height="2.96"/>
      <path class="cls-3" d="M473.6,479.06c-9.37,0-17-7.62-17-17s7.62-17,17-17,17,7.63,17,17-7.62,17-17,17ZM473.6,448.03c-7.74,0-14.03,6.3-14.03,14.04s6.29,14.03,14.03,14.03,14.03-6.29,14.03-14.03-6.29-14.04-14.03-14.04Z"/>
      <path class="cls-3" d="M400.54,302.47c-9.37,0-17-7.62-17-17s7.62-17,17-17,17,7.63,17,17-7.62,17-17,17ZM400.54,271.44c-7.74,0-14.03,6.3-14.03,14.04s6.29,14.03,14.03,14.03,14.03-6.29,14.03-14.03-6.29-14.04-14.03-14.04Z"/>
      <path class="cls-3" d="M490.74,258.33c-9.37,0-17-7.63-17-17s7.62-17,17-17,17,7.62,17,17-7.62,17-17,17ZM490.74,227.29c-7.74,0-14.03,6.29-14.03,14.03s6.29,14.04,14.03,14.04,14.03-6.3,14.03-14.04-6.29-14.03-14.03-14.03Z"/>
      <path class="cls-3" d="M747.24,258.33c-9.37,0-16.99-7.63-16.99-17s7.62-17,16.99-17,17,7.62,17,17-7.62,17-17,17ZM747.24,227.29c-7.73,0-14.03,6.29-14.03,14.03s6.29,14.04,14.03,14.04,14.03-6.3,14.03-14.04-6.29-14.03-14.03-14.03Z"/>
      <path class="cls-3" d="M578.2,258.33c-9.37,0-17-7.63-17-17s7.62-17,17-17,17,7.62,17,17-7.62,17-17,17ZM578.2,227.29c-7.74,0-14.03,6.29-14.03,14.03s6.29,14.04,14.03,14.04,14.03-6.3,14.03-14.04-6.29-14.03-14.03-14.03Z"/>
      <path class="cls-3" d="M694.11,302.47c-9.37,0-17-7.62-17-17s7.62-17,17-17,17,7.63,17,17-7.62,17-17,17ZM694.11,271.44c-7.74,0-14.03,6.3-14.03,14.04s6.29,14.03,14.03,14.03,14.03-6.29,14.03-14.03-6.29-14.04-14.03-14.04Z"/>
      <path class="cls-3" d="M603.82,346.88c-9.37,0-17-7.63-17-17s7.62-17,17-17,16.99,7.62,16.99,17-7.62,17-16.99,17ZM603.82,315.85c-7.74,0-14.03,6.29-14.03,14.03s6.29,14.04,14.03,14.04,14.03-6.3,14.03-14.04-6.29-14.03-14.03-14.03Z"/>
      <path class="cls-3" d="M653.37,258.33c-9.37,0-17-7.63-17-17s7.62-17,17-17,17,7.62,17,17-7.62,17-17,17ZM653.37,227.29c-7.74,0-14.03,6.29-14.03,14.03s6.29,14.04,14.03,14.04,14.03-6.3,14.03-14.04-6.29-14.03-14.03-14.03Z"/>
      <path class="cls-3" d="M424.78,434.91c-9.37,0-17-7.62-17-17s7.62-17,17-17,16.99,7.62,16.99,17-7.62,17-16.99,17ZM424.78,403.88c-7.74,0-14.03,6.29-14.03,14.03s6.29,14.03,14.03,14.03,14.03-6.29,14.03-14.03-6.29-14.03-14.03-14.03Z"/>
      <path class="cls-3" d="M579.08,390.77c-9.37,0-17-7.62-17-17s7.62-17,17-17,17,7.63,17,17-7.62,17-17,17ZM579.08,359.73c-7.74,0-14.03,6.3-14.03,14.04s6.29,14.03,14.03,14.03,14.03-6.29,14.03-14.03-6.29-14.04-14.03-14.04Z"/>
      <path class="cls-3" d="M557.19,434.91c-9.37,0-17-7.62-17-17s7.62-17,17-17,17,7.62,17,17-7.62,17-17,17ZM557.19,403.88c-7.74,0-14.03,6.29-14.03,14.03s6.29,14.03,14.03,14.03,14.03-6.29,14.03-14.03-6.29-14.03-14.03-14.03Z"/>
      <path class="cls-3" d="M645.38,479.06c-9.37,0-17-7.62-17-17s7.62-17,17-17,17,7.63,17,17-7.62,17-17,17ZM645.38,448.03c-7.74,0-14.03,6.3-14.03,14.04s6.29,14.03,14.03,14.03,14.03-6.29,14.03-14.03-6.29-14.04-14.03-14.04Z"/>
      <path class="cls-3" d="M563.57,523.21c-9.37,0-17-7.62-17-17s7.62-17,17-17,17,7.62,17,17-7.62,17-17,17ZM563.57,492.18c-7.74,0-14.03,6.29-14.03,14.03s6.29,14.03,14.03,14.03,14.03-6.29,14.03-14.03-6.29-14.03-14.03-14.03Z"/>
      <path class="cls-3" d="M466.38,567.36c-9.37,0-17-7.63-17-17s7.62-17,17-17,17,7.62,17,17-7.62,17-17,17ZM466.38,536.32c-7.74,0-14.03,6.29-14.03,14.03s6.29,14.04,14.03,14.04,14.03-6.3,14.03-14.04-6.29-14.03-14.03-14.03Z"/>
      <path class="cls-3" d="M724.88,567.36c-9.37,0-17-7.63-17-17s7.62-17,17-17,17,7.62,17,17-7.62,17-17,17ZM724.88,536.32c-7.74,0-14.03,6.29-14.03,14.03s6.29,14.04,14.03,14.04,14.03-6.3,14.03-14.04-6.29-14.03-14.03-14.03Z"/>
      <path class="cls-3" d="M658.67,567.36c-9.37,0-17-7.63-17-17s7.62-17,17-17,17,7.62,17,17-7.62,17-17,17ZM658.67,536.32c-7.74,0-14.03,6.29-14.03,14.03s6.29,14.04,14.03,14.04,14.03-6.3,14.03-14.04-6.29-14.03-14.03-14.03Z"/>
      <path class="cls-3" d="M219.6,567.36c-9.37,0-17-7.63-17-17s7.62-17,17-17,17,7.62,17,17-7.62,17-17,17ZM219.6,536.32c-7.74,0-14.03,6.29-14.03,14.03s6.29,14.04,14.03,14.04,14.03-6.3,14.03-14.04-6.29-14.03-14.03-14.03Z"/>
      <path class="cls-3" d="M285.8,523.21c-9.37,0-17-7.62-17-17s7.62-17,17-17,17,7.62,17,17-7.62,17-17,17ZM285.8,492.18c-7.74,0-14.03,6.29-14.03,14.03s6.29,14.03,14.03,14.03,14.03-6.29,14.03-14.03-6.29-14.03-14.03-14.03Z"/>
      <path class="cls-3" d="M241.67,434.91c-9.37,0-17-7.62-17-17s7.62-17,17-17,17,7.62,17,17-7.62,17-17,17ZM241.67,403.88c-7.74,0-14.03,6.29-14.03,14.03s6.29,14.03,14.03,14.03,14.03-6.29,14.03-14.03-6.29-14.03-14.03-14.03Z"/>
      <path class="cls-3" d="M864.11,346.62c-9.37,0-17-7.62-17-17s7.62-17,17-17,17,7.62,17,17-7.62,17-17,17ZM864.11,315.59c-7.74,0-14.03,6.29-14.03,14.03s6.29,14.03,14.03,14.03,14.03-6.29,14.03-14.03-6.29-14.03-14.03-14.03Z"/>
      <path class="cls-3" d="M930.32,390.77c-9.37,0-17-7.62-17-17,0-8.04,5.71-15.04,13.57-16.66l.59,2.9c-6.49,1.32-11.2,7.11-11.2,13.75,0,7.74,6.29,14.03,14.03,14.03,4.97,0,9.62-2.67,12.13-6.97l2.56,1.49c-3.03,5.2-8.66,8.44-14.68,8.44Z"/>
      <path class="cls-3" d="M864.11,523.21c-9.37,0-17-7.62-17-17s7.62-17,17-17,17,7.62,17,17-7.62,17-17,17ZM864.11,492.18c-7.74,0-14.03,6.29-14.03,14.03s6.29,14.03,14.03,14.03,14.03-6.29,14.03-14.03-6.29-14.03-14.03-14.03Z"/>
      <path class="cls-3" d="M974.46,567.36c-9.37,0-17-7.63-17-17s7.62-17,17-17,17,7.62,17,17-7.62,17-17,17ZM974.46,536.32c-7.74,0-14.03,6.29-14.03,14.03s6.29,14.04,14.03,14.04,14.03-6.3,14.03-14.04-6.29-14.03-14.03-14.03Z"/>
      <rect class="cls-3" x="585.64" y="902.06" width="86.41" height="2.96"/>
      <rect class="cls-3" x="778.27" y="857.91" width="150.82" height="2.96"/>
      <rect class="cls-3" x="308.85" y="902.06" width="91.28" height="2.96"/>
      <rect class="cls-3" x="346.24" y="946.21" width="98.03" height="2.96"/>
      <rect class="cls-3" x="825.48" y="813.76" width="111.4" height="2.96"/>
      <polygon class="cls-3" points="530.59 816.73 424.54 816.73 380.4 772.58 213.04 772.58 213.04 769.62 381.63 769.62 425.77 813.76 530.59 813.76 530.59 816.73"/>
      <rect class="cls-3" x="235.63" y="813.76" width="111.82" height="2.96"/>
      <rect class="cls-3" x="459.78" y="769.62" width="260.73" height="2.96"/>
      <rect class="cls-3" x="190.82" y="681.32" width="246.24" height="2.96"/>
      <rect class="cls-3" x="235.11" y="637.17" width="136.32" height="2.96"/>
      <rect class="cls-3" x="680.69" y="725.47" width="212.04" height="2.96"/>
      <rect class="cls-3" x="279.25" y="725.47" width="114.25" height="2.96"/>
      <rect class="cls-3" x="711.5" y="681.32" width="269.51" height="2.96"/>
      <rect class="cls-3" x="678.33" y="637.17" width="236.47" height="2.96"/>
      <rect class="cls-3" x="837.04" y="593.03" width="173.31" height="2.96"/>
      <rect class="cls-3" x="638.26" y="593.03" width="104.81" height="2.96"/>
      <rect class="cls-3" x="176.17" y="593.03" width="364.85" height="2.96"/>
      <polygon class="cls-3" points="446.98 1005.07 444.89 1002.97 457.5 990.35 656.53 990.35 656.53 993.32 458.73 993.32 446.98 1005.07"/>
      <path class="cls-3" d="M672.05,1008.84c-9.37,0-17-7.63-17-17s7.62-17,17-17,17,7.62,17,17-7.62,17-17,17ZM672.05,977.8c-7.74,0-14.03,6.29-14.03,14.03s6.29,14.04,14.03,14.04,14.03-6.3,14.03-14.04-6.29-14.03-14.03-14.03Z"/>
      <polygon class="cls-3" points="709.63 949.17 531.69 949.17 443.41 860.88 264.96 860.88 264.96 857.91 444.64 857.91 532.92 946.21 709.63 946.21 709.63 949.17"/>
      <rect class="cls-3" x="806.86" y="946.21" width="33.69" height="2.96"/>
      <path class="cls-3" d="M459.78,964.69c-9.37,0-17-7.62-17-17s7.62-17,17-17,17,7.63,17,17-7.62,17-17,17ZM459.78,933.65c-7.74,0-14.03,6.3-14.03,14.04s6.29,14.03,14.03,14.03,14.03-6.29,14.03-14.03-6.29-14.04-14.03-14.04Z"/>
      <path class="cls-3" d="M415.64,920.54c-9.37,0-17-7.63-17-17s7.62-17,17-17,17,7.62,17,17-7.62,17-17,17ZM415.64,889.51c-7.74,0-14.03,6.29-14.03,14.03s6.29,14.04,14.03,14.04,14.03-6.3,14.03-14.04-6.29-14.03-14.03-14.03Z"/>
      <path class="cls-3" d="M570.12,920.54c-9.37,0-16.99-7.63-16.99-17s7.62-17,16.99-17,17,7.62,17,17-7.62,17-17,17ZM570.12,889.51c-7.73,0-14.03,6.29-14.03,14.03s6.29,14.04,14.03,14.04,14.03-6.3,14.03-14.04-6.29-14.03-14.03-14.03Z"/>
      <path class="cls-3" d="M687.56,920.54c-9.37,0-17-7.63-17-17s7.62-17,17-17,17,7.62,17,17-7.62,17-17,17ZM687.56,889.51c-7.74,0-14.03,6.29-14.03,14.03s6.29,14.04,14.03,14.04,14.03-6.3,14.03-14.04-6.29-14.03-14.03-14.03Z"/>
      <polygon class="cls-3" points="892.74 905.02 746.63 905.02 702.49 860.88 519.43 860.88 519.43 857.91 703.72 857.91 747.85 902.06 892.74 902.06 892.74 905.02"/>
      <path class="cls-3" d="M503.92,876.39c-9.37,0-17-7.62-17-17s7.62-17,17-17,17,7.63,17,17-7.62,17-17,17ZM503.92,845.35c-7.74,0-14.03,6.3-14.03,14.04s6.29,14.03,14.03,14.03,14.03-6.29,14.03-14.03-6.29-14.04-14.03-14.04Z"/>
      <path class="cls-3" d="M762.75,876.39c-9.37,0-17-7.62-17-17s7.62-17,17-17,17,7.63,17,17-7.62,17-17,17ZM762.75,845.35c-7.74,0-14.03,6.3-14.03,14.04s6.29,14.03,14.03,14.03,14.03-6.29,14.03-14.03-6.29-14.04-14.03-14.04Z"/>
      <path class="cls-3" d="M791.35,964.69c-9.37,0-17-7.62-17-17s7.62-17,17-17,17,7.63,17,17-7.62,17-17,17ZM791.35,933.65c-7.74,0-14.03,6.3-14.03,14.04s6.29,14.03,14.03,14.03,14.03-6.29,14.03-14.03-6.29-14.04-14.03-14.04Z"/>
      <path class="cls-3" d="M725.14,964.69c-9.37,0-17-7.62-17-17s7.62-17,17-17,17,7.63,17,17-7.62,17-17,17ZM725.14,933.65c-7.74,0-14.03,6.3-14.03,14.04s6.29,14.03,14.03,14.03,14.03-6.29,14.03-14.03-6.29-14.04-14.03-14.04Z"/>
      <path class="cls-3" d="M546.1,832.25c-9.37,0-17-7.63-17-17s7.62-17,17-17,17,7.62,17,17-7.62,17-17,17ZM546.1,801.21c-7.74,0-14.03,6.29-14.03,14.03s6.29,14.04,14.03,14.04,14.03-6.3,14.03-14.04-6.29-14.03-14.03-14.03Z"/>
      <path class="cls-3" d="M362.96,832.25c-9.37,0-17-7.63-17-17s7.62-17,17-17,17,7.62,17,17-7.62,17-17,17ZM362.96,801.21c-7.74,0-14.03,6.29-14.03,14.03s6.29,14.04,14.03,14.04,14.03-6.3,14.03-14.04-6.29-14.03-14.03-14.03Z"/>
      <polygon class="cls-3" points="749.49 816.73 623.45 816.73 623.45 813.76 748.26 813.76 792.4 769.62 981.01 769.62 981.01 772.58 793.62 772.58 749.49 816.73"/>
      <path class="cls-3" d="M607.94,832.25c-9.37,0-17-7.63-17-17s7.62-17,17-17,17,7.62,17,17-7.62,17-17,17ZM607.94,801.21c-7.74,0-14.03,6.29-14.03,14.03s6.29,14.04,14.03,14.04,14.03-6.3,14.03-14.04-6.29-14.03-14.03-14.03Z"/>
      <path class="cls-3" d="M809.96,832.25c-9.37,0-17-7.63-17-17s7.62-17,17-17,17,7.62,17,17-7.62,17-17,17ZM809.96,801.21c-7.74,0-14.03,6.29-14.03,14.03s6.29,14.04,14.03,14.04,14.03-6.3,14.03-14.04-6.29-14.03-14.03-14.03Z"/>
      <path class="cls-3" d="M736.03,788.1c-9.37,0-17-7.62-17-17s7.62-17,17-17,17,7.63,17,17-7.62,17-17,17ZM736.03,757.06c-7.74,0-14.03,6.3-14.03,14.04s6.29,14.03,14.03,14.03,14.03-6.29,14.03-14.03-6.29-14.04-14.03-14.04Z"/>
      <path class="cls-3" d="M444.26,788.1c-9.37,0-17-7.62-17-17s7.62-17,17-17,17,7.63,17,17-7.62,17-17,17ZM444.26,757.06c-7.74,0-14.03,6.3-14.03,14.04s6.29,14.03,14.03,14.03,14.03-6.29,14.03-14.03-6.29-14.04-14.03-14.04Z"/>
      <path class="cls-3" d="M409.02,743.95c-9.37,0-17-7.63-17-17s7.62-17,17-17,17,7.62,17,17-7.62,17-17,17ZM409.02,712.92c-7.74,0-14.03,6.29-14.03,14.03s6.29,14.04,14.03,14.04,14.03-6.3,14.03-14.04-6.29-14.03-14.03-14.03Z"/>
      <path class="cls-3" d="M695.99,699.8c-9.37,0-17-7.62-17-17s7.62-17,17-17,17,7.62,17,17-7.62,17-17,17ZM695.99,668.77c-7.74,0-14.03,6.29-14.03,14.03s6.29,14.03,14.03,14.03,14.03-6.29,14.03-14.03-6.29-14.03-14.03-14.03Z"/>
      <path class="cls-3" d="M386.95,655.66c-9.37,0-17-7.63-17-17s7.62-17,17-17,17,7.62,17,17-7.62,17-17,17ZM386.95,624.62c-7.74,0-14.03,6.29-14.03,14.03s6.29,14.04,14.03,14.04,14.03-6.3,14.03-14.04-6.29-14.03-14.03-14.03Z"/>
      <path class="cls-3" d="M758.59,611.5c-9.37,0-17-7.62-17-17s7.62-17,17-17,17,7.62,17,17-7.62,17-17,17ZM758.59,580.48c-7.74,0-14.03,6.29-14.03,14.03s6.29,14.03,14.03,14.03,14.03-6.29,14.03-14.03-6.29-14.03-14.03-14.03Z"/>
      <path class="cls-3" d="M821.52,611.5c-9.37,0-17-7.62-17-17s7.62-17,17-17,17,7.62,17,17-7.62,17-17,17ZM821.52,580.48c-7.74,0-14.03,6.29-14.03,14.03s6.29,14.03,14.03,14.03,14.03-6.29,14.03-14.03-6.29-14.03-14.03-14.03Z"/>
      <path class="cls-3" d="M263.73,743.95c-9.37,0-17-7.63-17-17s7.62-17,17-17,17,7.62,17,17-7.62,17-17,17ZM263.73,712.92c-7.74,0-14.03,6.29-14.03,14.03s6.29,14.04,14.03,14.04,14.03-6.3,14.03-14.04-6.29-14.03-14.03-14.03Z"/>
      <path class="cls-3" d="M219.6,655.66c-9.37,0-17-7.63-17-17s7.62-17,17-17,17,7.62,17,17-7.62,17-17,17ZM219.6,624.62c-7.74,0-14.03,6.29-14.03,14.03s6.29,14.04,14.03,14.04,14.03-6.3,14.03-14.04-6.29-14.03-14.03-14.03Z"/>
      <path class="cls-3" d="M930.32,655.66c-9.37,0-17-7.63-17-17s7.62-17,17-17,16.99,7.62,16.99,17-7.62,17-16.99,17ZM930.32,624.62c-7.74,0-14.03,6.29-14.03,14.03s6.29,14.04,14.03,14.04,14.03-6.3,14.03-14.04-6.29-14.03-14.03-14.03Z"/>
      <path class="cls-3" d="M996.53,699.8c-9.37,0-17-7.62-17-17s7.62-17,17-17,17,7.62,17,17-7.62,17-17,17ZM996.53,668.77c-7.74,0-14.03,6.29-14.03,14.03s6.29,14.03,14.03,14.03,14.03-6.29,14.03-14.03-6.29-14.03-14.03-14.03Z"/>
      <path class="cls-3" d="M908.24,743.95c-9.37,0-16.99-7.63-16.99-17s7.62-17,16.99-17,17,7.62,17,17-7.62,17-17,17ZM908.24,712.92c-7.73,0-14.03,6.29-14.03,14.03s6.29,14.04,14.03,14.04,14.03-6.3,14.03-14.04-6.29-14.03-14.03-14.03Z"/>
      <path class="cls-3" d="M950.7,832.16c-8.72-.86-15.3-8.14-15.3-16.92,0-9.37,7.62-17,17-17,5.43,0,10.58,2.64,13.77,7.05l-2.4,1.73c-2.64-3.64-6.89-5.82-11.37-5.82-7.74,0-14.03,6.29-14.03,14.03,0,7.25,5.43,13.26,12.63,13.97l-.29,2.95Z"/>
    </g>
    <path class="cls-1" d="M596.65,1035.26c-233.45,0-423.38-189.97-423.38-423.48s189.93-423.48,423.38-423.48,423.39,189.97,423.39,423.48-189.93,423.48-423.39,423.48ZM596.65,203.1c-225.3,0-408.59,183.33-408.59,408.68s183.29,408.68,408.59,408.68,408.59-183.33,408.59-408.68-183.3-408.68-408.59-408.68Z"/>
    <g>
      <path class="cls-5" d="M117.15,544.84c-3.76,28.04-25.55,50.22-59.31,45.71-33.76-4.52-48.81-31.64-45.02-59.96,3.6-26.87,19.25-36.58,23.2-39.34l11.55,17.54c-5.26,3.63-13.22,10.62-15.07,24.42-2.18,16.29,8.02,30.51,28.57,33.25s34.16-8.57,36.36-25.02c2.21-16.43-3.63-22-3.63-22l-14.97-2.01-2.85,21.29-18.05-2.41,5.95-44.48,41.98,5.62c3.86,5.75,15.02,19.5,11.29,47.37Z"/>
      <path class="cls-5" d="M146.98,432.54c-11.24,28.2-38.37,43.04-69.04,30.8-30.67-12.23-40.26-41.72-29.01-69.92,11.24-28.18,38.5-42.98,69.17-30.74s40.13,41.68,28.88,69.86ZM67.91,400.99c-6.32,15.81.32,32.34,18.48,39.58,18.15,7.24,34.47-.12,40.78-15.93,6.32-15.83-.46-32.39-18.63-39.64-18.01-7.18-34.34.17-40.64,15.98Z"/>
      <path class="cls-5" d="M212.01,302.65c.12,8.06-3.6,16.68-9.65,25.28l-24.08,34.12-83.52-58.89,20.06-28.44c5.38-7.63,11.2-14.58,18.02-18.11,6.84-3.51,15.87-4.75,25.06,1.73,9.21,6.49,12.04,17.37,9.78,25.2l.25.16c9.87-8.61,21.76-10.56,32.05-3.31,9.19,6.49,11.91,14.21,12.02,22.26ZM136.58,278.29c-3.06,1.27-4.84,3.28-7.83,7.52l-5.72,8.11,19.25,13.59,5.38-7.63c3.08-4.36,4.62-7.07,4.67-10.48.01-3.61-.97-6.85-5.09-9.76-3.99-2.82-7.49-2.75-10.65-1.34ZM173.08,297.49c-4.12,1.45-6.66,4.55-9.64,8.79l-7.6,10.77,21.3,15.03,7.6-10.78c2.98-4.23,5.04-7.67,5.03-12.02.12-4.28-1.73-7.57-5.36-10.13-3.74-2.64-7.23-3.11-11.33-1.65Z"/>
      <path class="cls-5" d="M240.73,280.96l-73.08-71.35,16.76-17.17,73.07,71.36-16.75,17.15Z"/>
      <path class="cls-5" d="M278.9,242.94l-61.55-81.48,52.79-39.87,11.5,15.23-33.77,25.51,12.57,16.65,31.9-24.08,11.5,15.23-31.9,24.08,14.28,18.9,34.84-26.32,11.68,15.48-53.85,40.67Z"/>
      <path class="cls-5" d="M401.84,166.22l-36.3-25.84-6.79,3.28,16.98,35.18-21.58,10.42-44.41-91.92,33.04-15.97c10.26-4.96,19.29-6.68,27.4-5.19,8.32,1.58,15.85,6.97,20.31,16.17,8.43,17.44.52,29.64-5.25,35.06l41.65,26.71-25.05,12.1ZM359.97,96.57c-3.63-.71-7.28.56-12.21,2.95l-8.53,4.12,11.39,23.59,8.53-4.12c4.93-2.38,8.14-4.6,9.84-7.88,1.84-3.35,2.47-6.78.16-11.58-2.25-4.67-5.41-6.43-9.18-7.08Z"/>
      <path class="cls-5" d="M509.86,133.17l-59.05-57.62s3.15,11.88,5.55,22.42l10.22,45.02-22.81,5.17-22.59-99.56,24.96-5.67,57.91,57.26s-2.99-11.16-5.38-21.69l-10.26-45.16,22.81-5.17,22.59,99.58-23.95,5.43Z"/>
      <path class="cls-5" d="M610.69,127.96c-30.32-.88-53.57-21.24-52.61-54.22.95-32.99,25.33-52.11,55.66-51.23,30.32.88,53.56,21.39,52.61,54.37-.95,32.98-25.33,51.97-55.66,51.09ZM613.15,42.9c-17-.49-30.22,11.4-30.8,30.93-.56,19.52,11.95,32.33,28.96,32.82,17,.49,30.23-11.56,30.8-31.09.56-19.37-11.95-32.17-28.96-32.66Z"/>
      <path class="cls-1" d="M762.35,154.89l-35.99-13.69,36.3-95.51,35.99,13.69c31.71,12.04,48.89,33.95,35.84,68.27s-40.44,39.28-72.15,27.24ZM791.28,85.89l-7.21-2.75-16.56,43.6,7.2,2.75c13.98,5.3,23.07-.26,28.23-13.83,5.26-13.85,2.88-24.25-11.65-29.77Z"/>
      <path class="cls-1" d="M833.61,187.25l52.98-87.42,28.63,17.36-52.98,87.41-28.63-17.34Z"/>
      <path class="cls-1" d="M920.28,251.65c-20.44-18.21-29.38-48.2-5.26-75.25,24.12-27.05,54.83-21.48,75.82-2.77,20.97,18.72,19.96,37.63,20.2,41.81l-28.88-.97c-.17-3.14-.71-12.53-9.55-20.41-8.83-7.88-21.69-7.46-32.52,4.7-10.84,12.14-9.78,24.97-.95,32.85s12.95,6.59,12.95,6.59l4.93-5.52-11.59-10.33,16.43-18.44,35.88,32-29.73,33.34c-11,.1-27.31.62-47.74-17.59Z"/>
      <path class="cls-1" d="M969.87,300.36l80.56-62.79,20.57,26.39-80.56,62.79-20.57-26.39Z"/>
      <path class="cls-1" d="M1096.67,354.8l-66.62,36.8-16.19-29.29,66.62-36.8-11.59-21,22.81-12.6,39.45,71.42-22.82,12.6-11.66-21.13Z"/>
      <path class="cls-1" d="M1064.99,481.44l12.47-8.18-8.8-27.79-14.86.68-10.51-33.17,108.12,2.88,11.17,35.28-86.64,64.88-10.95-34.57ZM1123.61,443.35l-28.38,1.11,4.55,14.39,23.83-15.51Z"/>
      <path class="cls-1" d="M1076.87,531.95l101.58-10.12,3.31,33.12-74.36,7.41,3.45,34.6-27.24,2.72-6.75-67.74Z"/>
    </g>
    <g>
      <path class="cls-6" d="M103.98,759.99c1.91,5.82,2.4,11.27.49,16.03-1.88,4.83-5.26,8.47-11.17,10.41-5.91,1.95-10.88,1.06-15.26-1.72-4.35-2.69-7.46-7.28-9.37-13.11l-2.53-7.69-22.98,7.56-3.63-11.07,58.27-19.16,6.17,18.76ZM81.51,774.21c1.97,1.4,4.77,1.98,8.06.9,3.21-1.06,5.04-3.44,5.8-5.74.74-2.3.58-4.78-.53-8.15l-2.02-6.17-18.08,5.94,2.11,6.42c1.11,3.38,2.7,5.39,4.67,6.81Z"/>
      <path class="cls-6" d="M78.24,825l-15.03,1.14-5.06-10.85,65.7-4.12,4.73,10.13-45.39,47.69-5.32-11.42,10.54-10.78-10.16-21.79ZM95.55,840.32l18.57-18.74-26.32,2.1,7.75,16.65Z"/>
      <path class="cls-6" d="M157.51,873.73c5.77,8.95,7.14,17.44,6.11,23.7-.9,6.29-4.09,14.26-13.86,20.57-9.83,6.34-18.56,6.07-24.66,4.31-6.06-1.69-13.24-6.45-19.02-15.39l-10.62-16.46,51.41-33.2,10.64,16.48ZM126.67,911.48c3.97.92,9.65,1.06,16.58-3.43,6.86-4.42,9.29-9.8,10.1-13.8.66-4.02-.12-9.32-3.71-14.91l-4.62-7.15-35.1,22.66,4.62,7.15c3.61,5.59,8.12,8.48,12.14,9.48Z"/>
      <path class="cls-6" d="M166.98,948.94l-19.03,16-7.43-8.83,46.9-39.43,12.69,15.09c4.16,4.96,6.39,9.81,6.6,14.63s-1.62,9.94-6.1,13.72c-8.09,6.79-15.07,5.12-21.63.9l-9.5,29.55-8.69-10.33,9.73-27.07-3.54-4.22ZM184.88,953.15c2.77.68,5.14.32,7.79-1.91,2.59-2.18,3.48-4.55,3.22-7.36-.14-2.79-1.76-5.13-4.16-7.98l-3.89-4.62-14,11.76,3.89,4.62c2.4,2.85,4.44,4.86,7.15,5.48Z"/>
      <path class="cls-6" d="M204.26,983.18c13.24-14.64,31.91-13.82,45.03-1.97,13.18,11.92,15.81,30.36,2.57,45-13.24,14.64-31.84,13.87-45.02,1.95-13.12-11.87-15.83-30.36-2.59-44.99ZM242.55,988.67c-8.44-7.63-20.45-7.47-29.4,2.43-8.93,9.89-7.89,21.98.49,29.55,8.44,7.63,20.51,7.4,29.45-2.5,8.95-9.89,7.89-21.85-.55-29.48ZM270.24,978.47l-15.7,3.18-6.14-5.55,14.19-4.55,7.65,6.92Z"/>
      <path class="cls-6" d="M279.53,1046.81l-16.69,25.12-9.37-6.26,33.96-51.1,10.19,6.79.56,54.14s3.84-6.1,7.88-12.17l16.74-25.19,9.38,6.26-33.96,51.1-9.68-6.45-.78-54.93s-4.19,6.62-8.22,12.69Z"/>
      <path class="cls-6" d="M396.54,1076.05c9.87,4.02,15.88,10.19,18.63,15.91,2.86,5.67,4.83,14.03.45,24.8-4.41,10.85-11.72,15.64-17.73,17.69-5.93,2.1-14.54,2.33-24.41-1.68l-18.17-7.39,23.07-56.72,18.17,7.39ZM392.95,1124.69c3.77-1.53,8.51-4.68,11.62-12.33,3.08-7.56,1.98-13.37.35-17.1-1.76-3.69-5.45-7.59-11.62-10.09l-7.89-3.21-15.74,38.72,7.89,3.21c6.17,2.5,11.52,2.28,15.39.79Z"/>
      <path class="cls-6" d="M482.24,1103.74l-2.46,9.28-25.41-6.76-3.9,14.68,23.95,6.36-2.44,9.18-23.95-6.36-4.47,16.82,26.09,6.94-2.46,9.26-37.24-9.9,15.74-59.21,36.55,9.71Z"/>
      <path class="cls-6" d="M551.91,1114.09c4.96.42,9.52,1.26,13.34,3.54,4.6,2.7,7.37,6.68,6.79,13.67-.64,7.43-6.49,11.3-10.61,12.57v.17c7.72,2.43,12.52,8.01,11.85,15.8-.55,6.63-4.06,11.16-8.44,13.45-4,2.08-9.5,2.6-15.33,2.11l-22.3-1.88,5.13-61.09,19.57,1.65ZM557.68,1165.3c2.14-1.16,3.7-3.79,3.97-6.98.27-3.37-1.03-5.8-3.19-7.57-2.17-1.79-4.54-2.34-8.08-2.64l-9.38-.79-1.53,18.15,9.91.84c2.93.25,5.77.39,8.3-1ZM556.26,1138.61c2.24-1.14,3.66-3.17,3.96-6.79.45-5.32-3.5-8.22-9.42-8.73l-7.7-.65-1.39,16.46,7.17.61c3.19.27,5.43.1,7.39-.9Z"/>
      <path class="cls-6" d="M633.62,1115.04l.32,9.6-26.26.87.51,15.17,24.76-.82.3,9.5-24.76.82.58,17.39,26.98-.88.32,9.58-38.52,1.27-2.02-61.23,37.79-1.26Z"/>
      <path class="cls-6" d="M670.55,1142.5l4.81,29.7-11.13,1.81-9.81-60.45,12.1-1.97,37.2,39.19s-1.33-7.07-2.49-14.25l-4.84-29.8,11.13-1.81,9.81,60.47-11.48,1.85-37.91-39.61s1.43,7.69,2.6,14.87Z"/>
      <path class="cls-6" d="M765.51,1088.3l2.75,9.21-25.19,7.54,4.36,14.57,23.74-7.12,2.73,9.1-23.76,7.12,5.01,16.68,25.87-7.75,2.76,9.19-36.95,11.07-17.6-58.73,36.27-10.88Z"/>
      <path class="cls-6" d="M818.53,1066.58l3.82,8.92-22.65,9.7,6.79,15.85,21.35-9.13,3.74,8.74-21.35,9.13,9.81,22.89-10.64,4.55-24.15-56.41,33.27-14.25Z"/>
      <path class="cls-6" d="M846.58,1051.88l28.98,54.07-10.16,5.45-28.98-54.07,10.16-5.45Z"/>
      <path class="cls-6" d="M925.41,1076.45c-14.87,10.03-33.17,7.69-44.05-8.43-10.87-16.13-6.04-34.06,8.67-43.99,9.94-6.71,18.51-6.39,21.97-5.72l1.88,10.09c-2.76-.91-11.14-.94-18.35,3.93-8.83,5.95-12.49,16.89-4.39,28.89,7.4,10.97,19.08,13.48,29.22,6.63,6.78-4.57,9.51-10.69,10.33-15.97l8.25,4.93c-.78,5.03-3.51,12.88-13.53,19.64Z"/>
      <path class="cls-6" d="M932.37,992.75l39.11,47.22-8.89,7.36-39.11-47.2,8.89-7.37Z"/>
      <path class="cls-6" d="M991.2,1003.14l6.32,13.7-8.43,8.54-26.79-60.21,7.85-7.96,60.58,25.93-8.84,8.97-13.8-6.11-16.88,17.14ZM999.51,981.55l-24.05-10.88,11.16,23.96,12.89-13.08Z"/>
      <path class="cls-6" d="M1033.46,940.01l19.79,15.12-7.01,9.16-48.78-37.24,11.98-15.64c3.95-5.14,8.21-8.37,12.86-9.63,4.65-1.24,10.07-.56,14.73,2.99,8.41,6.43,8.3,13.6,5.61,20.91l30.96,2.88-8.21,10.71-28.59-3.63-3.34,4.36ZM1033.65,921.63c.06-2.86-.81-5.09-3.57-7.2-2.67-2.04-5.2-2.41-7.88-1.55-2.69.74-4.64,2.83-6.89,5.78l-3.67,4.8,14.55,11.11,3.67-4.78c2.27-2.96,3.79-5.38,3.79-8.17Z"/>
      <path class="cls-6" d="M1039.63,867.49l51.88,32.58-6.14,9.77-51.88-32.56,6.14-9.78Z"/>
      <path class="cls-6" d="M1078.16,864.19c-17.75-8.57-22.21-26.69-14.52-42.61,7.73-15.98,24.66-23.69,42.4-15.12,17.75,8.57,22.24,26.62,14.51,42.61-7.67,15.91-24.64,23.69-42.39,15.12ZM1072.67,825.95c-4.94,10.23-1.4,21.69,10.58,27.49,12,5.8,23.3,1.39,28.2-8.76,4.94-10.23,1.33-21.74-10.67-27.53-11.98-5.8-23.17-1.43-28.11,8.8Z"/>
      <path class="cls-6" d="M1137.93,751.24c10.81,3.53,15.41,13.8,11.39,26.14-3.25,9.96-10.13,15.29-15.77,17.65l-6.23-7.82c6.47-2.93,10.97-7.54,12.76-13.04,1.76-5.41.35-9.97-4.71-11.62-4.57-1.49-7.08,1.06-10.72,5.38l-6.62,7.93c-4.6,5.51-10.45,8.27-17.54,5.95-10.13-3.31-14.55-13.53-10.55-25.78,2.69-8.27,8.11-13.14,12.79-15.45l6.14,7.8c-4.6,2.62-8.5,6.29-10.12,11.27-1.58,4.81-.45,9.39,3.86,10.8,4.22,1.37,7.01-1.73,9.26-4.36l7.14-8.41c6.06-7.1,11.66-8.82,18.92-6.45Z"/>
    </g>
    <polygon class="cls-4" points="81 663.69 59.73 666.46 76.73 653.37 66.39 643.02 53.3 660.02 56.07 638.75 41.44 638.75 44.21 660.02 31.12 643.02 20.78 653.37 37.78 666.46 16.51 663.69 16.51 678.32 37.78 675.55 20.78 688.64 31.12 698.98 44.21 681.98 41.44 703.26 56.07 703.26 53.3 681.98 66.39 698.98 76.73 688.64 59.73 675.55 81 678.32 81 663.69"/>
    <polygon class="cls-4" points="1176.79 663.69 1155.52 666.46 1172.52 653.37 1162.17 643.02 1149.09 660.02 1151.86 638.75 1137.23 638.75 1139.99 660.02 1126.91 643.02 1116.57 653.37 1133.56 666.46 1112.29 663.69 1112.29 678.32 1133.56 675.55 1116.57 688.64 1126.91 698.98 1139.99 681.98 1137.23 703.26 1151.86 703.26 1149.09 681.98 1162.17 698.98 1172.52 688.64 1155.52 675.55 1176.79 678.32 1176.79 663.69"/>
  </g>
  <g>
    <path class="cls-2" d="M828.22,682.8c-.63,0-1.21.17-1.84.18l2.04-212.08-76.89-75.57h-195.49s-.35,6.28-.89,16.57c-16.86-35.81-53.17-60.66-95.38-60.66-58.25,0-105.48,47.22-105.48,105.48s47.22,105.48,105.48,105.48c38.58,0,72.22-20.78,90.61-51.68-1.31,30.9-2.34,60.54-2.34,77.91,79.75,43.68,83.77,110.46,83.18,190.7,38.7,0,83.66-.42,120.64-.86,7.83,35.01,38.98,61.23,76.35,61.23,43.27,0,78.36-35.08,78.36-78.36s-35.08-78.36-78.36-78.36Z"/>
    <path class="cls-6" d="M631.23,733.67c0-94.1-76.29-170.39-170.39-170.39s-170.39,76.29-170.39,170.39v45.48h340.78v-45.48Z"/>
    <path class="cls-1" d="M777.45,555.18h-137.16c-4.6,0-8.33-3.73-8.33-8.33s3.73-8.33,8.33-8.33h137.16c4.6,0,8.33,3.73,8.33,8.33s-3.73,8.33-8.33,8.33Z"/>
    <path class="cls-1" d="M722,513.58h-117.77c-4.6,0-8.33-3.73-8.33-8.33s3.73-8.33,8.33-8.33h117.77c4.6,0,8.33,3.73,8.33,8.33s-3.73,8.33-8.33,8.33Z"/>
    <path class="cls-1" d="M777.45,596.78h-137.16c-4.6,0-8.33-3.73-8.33-8.33s3.73-8.33,8.33-8.33h137.16c4.6,0,8.33,3.73,8.33,8.33s-3.73,8.33-8.33,8.33Z"/>
    <path class="cls-1" d="M777.45,638.37h-137.16c-4.6,0-8.33-3.73-8.33-8.33s3.73-8.33,8.33-8.33h137.16c4.6,0,8.33,3.73,8.33,8.33s-3.73,8.33-8.33,8.33Z"/>
    <path class="cls-1" d="M777.45,679.96h-137.16c-4.6,0-8.33-3.73-8.33-8.33s3.73-8.33,8.33-8.33h137.16c4.6,0,8.33,3.73,8.33,8.33s-3.73,8.33-8.33,8.33Z"/>
    <circle class="cls-6" cx="608.26" cy="546.85" r="11.1"/>
    <circle class="cls-6" cx="608.26" cy="588.45" r="11.1"/>
    <circle class="cls-6" cx="608.26" cy="630.04" r="11.1"/>
    <path class="cls-1" d="M836.76,679.74v-208.46c0-4.27-1.74-8.45-4.75-11.45l-69.4-69.4c-3.06-3.05-7.13-4.73-11.44-4.73h-187.74c-4.33,0-8.56,1.16-12.25,3.36-.11.07-.17.18-.28.25-20.76-27.11-53.35-44.7-90.06-44.7-62.59,0-113.51,50.91-113.51,113.5,0,45.88,27.41,85.4,66.68,103.27-75.88,20.65-131.9,89.96-131.9,172.29v53.82h468.09c10.92,32.94,41.67,56.92,78.22,56.92,45.62,0,82.75-37.12,82.75-82.75,0-42.78-32.75-77.67-74.42-81.91ZM762.76,414.1l45.84,45.71-45.84.35v-46.06ZM364,458.11c0-53.39,43.44-96.84,96.85-96.84s96.83,43.44,96.83,96.84-43.44,96.84-96.83,96.84-96.85-43.44-96.85-96.84ZM507.67,561.38c11.79-5.37,22.5-12.66,31.72-21.53v33.53c-10.09-4.96-20.68-8.99-31.72-11.99ZM298.79,733.67c0-89.36,72.7-162.06,162.06-162.06s162.06,72.7,162.06,162.06v37.15h-324.12v-37.15ZM639.57,770.82v-37.15c0-63.54-33.43-119.29-83.52-150.99v-63c11.52-17.76,18.29-38.87,18.29-61.57,0-19.89-5.18-38.58-14.2-54.85,1.04-.52,2.11-.89,3.3-.89l182.66-.14v57.94c0,8.92,7.26,16.19,16.19,16.19h57.81v203.38c-41.67,4.25-74.42,39.13-74.42,81.91,0,3.14.58,6.12.93,9.17h-107.03ZM828.43,827.74c-36.45,0-66.09-29.65-66.09-66.09s29.65-66.09,66.09-66.09,66.09,29.65,66.09,66.09-29.65,66.09-66.09,66.09Z"/>
    <path class="cls-6" d="M813.81,793.56c-.26,0-.54,0-.81-.02-4.05-.24-7.75-2.26-10.15-5.52l-12.92-17.48c-2.73-3.7-1.95-8.92,1.76-11.66,3.66-2.73,8.88-1.94,11.65,1.76l10.76,14.56,40.04-42.81c3.16-3.35,8.41-3.55,11.78-.4,3.35,3.14,3.53,8.41.39,11.77l-42.53,45.48c-2.6,2.77-6.18,4.33-9.96,4.33Z"/>
  </g>
</svg>